<svg width="58" height="55" viewBox="0 0 58 55" fill="none" xmlns="http://www.w3.org/2000/svg">
<path fill-rule="evenodd" clip-rule="evenodd" d="M33.6022 4.84011C33.8875 5.09685 33.9323 5.52244 34.0221 6.37363L34.4633 10.5576C34.63 12.1381 34.7133 12.9284 35.254 13.1588C35.7948 13.3893 36.4226 12.9022 37.6783 11.928L41.3142 9.10701C41.9614 8.60487 42.285 8.3538 42.6549 8.37213C43.0248 8.39045 43.322 8.67228 43.9164 9.23594L48.1213 13.2234C48.7766 13.8448 49.1043 14.1555 49.1243 14.5555C49.1443 14.9556 48.8494 15.2974 48.2594 15.9812L45.6289 19.03C44.5204 20.3148 43.9661 20.9571 44.1933 21.5222C44.4204 22.0873 45.265 22.1674 46.9543 22.3276L51.3555 22.745C52.2159 22.8265 52.6461 22.8673 52.9064 23.1535C53.1666 23.4396 53.1666 23.8717 53.1666 24.736V30.2641C53.1666 31.1284 53.1666 31.5605 52.9064 31.8466C52.6461 32.1327 52.2159 32.1735 51.3555 32.2551L46.9552 32.6724C45.2659 32.8326 44.4213 32.9127 44.1942 33.4778C43.967 34.0429 44.5213 34.6852 45.6298 35.97L48.2595 39.0179L48.2596 39.0179C48.8495 39.7016 49.1445 40.0435 49.1244 40.4435C49.1044 40.8436 48.7767 41.1543 48.1215 41.7757L43.9165 45.7631C43.3221 46.3268 43.0249 46.6086 42.655 46.6269C42.2851 46.6453 41.9615 46.3942 41.3143 45.8921L37.6784 43.0711C36.4227 42.0969 35.7949 41.6097 35.2541 41.8402C34.7134 42.0707 34.6301 42.861 34.4634 44.4415L34.0221 48.6264C33.9323 49.4776 33.8875 49.9032 33.6022 50.16C33.317 50.4167 32.889 50.4167 32.0331 50.4167H25.9668C25.1109 50.4167 24.683 50.4167 24.3977 50.16C24.1125 49.9032 24.0676 49.4776 23.9778 48.6264L23.5366 44.4424C23.37 42.8619 23.2866 42.0716 22.7459 41.8411C22.2052 41.6106 21.5773 42.0978 20.3217 43.072L16.6856 45.8931C16.0384 46.3952 15.7148 46.6463 15.3449 46.628C14.975 46.6097 14.6778 46.3278 14.0834 45.7642L9.87841 41.7767C9.22312 41.1553 8.89547 40.8446 8.87544 40.4446C8.85541 40.0445 9.15039 39.7027 9.74033 39.0189L12.3709 35.97C13.4794 34.6853 14.0337 34.0429 13.8065 33.4778C13.5794 32.9127 12.7348 32.8326 11.0455 32.6725L6.6445 32.2551C5.78407 32.1735 5.35385 32.1327 5.09358 31.8466C4.83331 31.5605 4.83331 31.1284 4.83331 30.2641V24.736C4.83331 23.8717 4.83331 23.4396 5.09358 23.1535C5.35385 22.8673 5.78407 22.8265 6.6445 22.745L11.0464 22.3275C12.7357 22.1673 13.5803 22.0872 13.8074 21.5222C14.0346 20.9571 13.4803 20.3147 12.3718 19.0299L9.74044 15.9801C9.1505 15.2964 8.85552 14.9545 8.87555 14.5545C8.89558 14.1545 9.22323 13.8438 9.87852 13.2224L14.0835 9.2349C14.6779 8.67124 14.9751 8.38941 15.345 8.37109C15.7149 8.35276 16.0385 8.60383 16.6857 9.10597L20.3218 11.9271C21.5774 12.9013 22.2053 13.3884 22.746 13.1579C23.2867 12.9275 23.3701 12.1372 23.5367 10.5567L23.9778 6.37363C24.0676 5.52245 24.1125 5.09685 24.3977 4.84011C24.683 4.58337 25.1109 4.58337 25.9668 4.58337H32.0331C32.889 4.58337 33.317 4.58337 33.6022 4.84011ZM29 36.6667C34.3387 36.6667 38.6666 32.5627 38.6666 27.5C38.6666 22.4374 34.3387 18.3334 29 18.3334C23.6612 18.3334 19.3333 22.4374 19.3333 27.5C19.3333 32.5627 23.6612 36.6667 29 36.6667Z" fill="#222222"/>
</svg>
