<svg width="44" height="36" viewBox="0 0 44 36" fill="none" xmlns="http://www.w3.org/2000/svg">
<path d="M7.74877 21.0665C6.41026 19.2413 6.41026 16.7587 7.74877 14.9335C8.07003 14.4954 8.55033 14.2009 9.08645 14.1131L12.555 13.5455C12.7361 13.5159 12.9036 13.431 13.0346 13.3024L19.2791 7.17147C20.4391 6.03256 21.0191 5.4631 21.5095 5.6689C22 5.87469 22 6.68752 22 8.31317L22 27.6868C22 29.3125 22 30.1253 21.5095 30.3311C21.0191 30.5369 20.4391 29.9674 19.2791 28.8285L13.0346 22.6976C12.9036 22.569 12.7361 22.4841 12.555 22.4545L9.08645 21.8869C8.55033 21.7991 8.07003 21.5046 7.74877 21.0665Z" fill="white"/>
<path d="M26.6485 12.6967C28.3587 14.096 29.3237 15.9916 29.3333 17.9705C29.3428 19.9493 28.3961 21.8511 26.6993 23.2614" stroke="white" stroke-width="2" stroke-linecap="round"/>
<path d="M34.2042 9.51472C36.9406 11.7536 38.4846 14.7865 38.4999 17.9527C38.5151 21.1189 37.0004 24.1617 34.2856 26.4182" stroke="white" stroke-width="2" stroke-linecap="round"/>
</svg>
