<svg width="65" height="59" viewBox="0 0 65 59" fill="none" xmlns="http://www.w3.org/2000/svg">
<path fill-rule="evenodd" clip-rule="evenodd" d="M5.41669 29.5C5.41669 15.923 16.423 4.91663 30 4.91663H35C48.577 4.91663 59.5834 15.923 59.5834 29.5C59.5834 37.8489 55.4214 45.2258 49.059 49.669C48.0244 46.4317 45.883 43.5939 42.9639 41.5608C39.9522 39.4631 36.2741 38.3333 32.5 38.3333C28.7259 38.3333 25.0478 39.4631 22.0361 41.5608C19.1171 43.5939 16.9757 46.4317 15.941 49.669C9.57866 45.2258 5.41669 37.8489 5.41669 29.5ZM47.2372 50.5488C47.2606 50.6281 47.293 50.7023 47.3329 50.7706C43.7077 52.877 39.4947 54.0833 35 54.0833H30C25.5053 54.0833 21.2924 52.877 17.6672 50.7706C17.7071 50.7023 17.7394 50.6281 17.7628 50.5488C18.6204 47.6436 20.5162 45.0567 23.1792 43.2019C25.8434 41.3463 29.1197 40.3333 32.5 40.3333C35.8803 40.3333 39.1566 41.3463 41.8209 43.2019C44.4839 45.0567 46.3796 47.6436 47.2372 50.5488ZM25.375 22.125C25.375 18.6931 28.4717 15.75 32.5 15.75C36.5284 15.75 39.625 18.6931 39.625 22.125C39.625 25.5568 36.5284 28.5 32.5 28.5C28.4717 28.5 25.375 25.5568 25.375 22.125ZM32.5 13.75C27.5538 13.75 23.375 17.4106 23.375 22.125C23.375 26.8393 27.5538 30.5 32.5 30.5C37.4463 30.5 41.625 26.8393 41.625 22.125C41.625 17.4106 37.4463 13.75 32.5 13.75Z" fill="#222222"/>
<rect x="5.91669" y="5.41663" width="53.1667" height="48.1667" rx="24.0833" stroke="#222222"/>
</svg>
